<mxfile host="app.diagrams.net" modified="2021-08-26T03:00:33.895Z" agent="5.0 (Macintosh; Intel Mac OS X 10_15_7) AppleWebKit/537.36 (KHTML, like Gecko) Chrome/86.0.4240.193 Safari/537.36" etag="qXaGu2orJivc2c-qh6Fl" version="14.9.9" type="github">
  <diagram id="OHZLWfedDUND4alMNX9L" name="Page-1">
    <mxGraphModel dx="946" dy="536" grid="1" gridSize="10" guides="1" tooltips="1" connect="1" arrows="1" fold="1" page="1" pageScale="1" pageWidth="827" pageHeight="1169" math="0" shadow="0">
      <root>
        <mxCell id="0" />
        <mxCell id="1" parent="0" />
        <mxCell id="WBM-sQeUL6CdWFp2ai0U-1" style="rounded=0;orthogonalLoop=1;jettySize=auto;html=1;exitX=0;exitY=1;exitDx=0;exitDy=0;entryX=0.7;entryY=0.05;entryDx=0;entryDy=0;entryPerimeter=0;fillColor=#dae8fc;strokeColor=#6c8ebf;" edge="1" parent="1" source="WBM-sQeUL6CdWFp2ai0U-3" target="WBM-sQeUL6CdWFp2ai0U-6">
          <mxGeometry relative="1" as="geometry" />
        </mxCell>
        <mxCell id="WBM-sQeUL6CdWFp2ai0U-2" style="edgeStyle=none;rounded=0;orthogonalLoop=1;jettySize=auto;html=1;exitX=1;exitY=1;exitDx=0;exitDy=0;fillColor=#dae8fc;strokeColor=#6c8ebf;" edge="1" parent="1" source="WBM-sQeUL6CdWFp2ai0U-3" target="WBM-sQeUL6CdWFp2ai0U-9">
          <mxGeometry relative="1" as="geometry" />
        </mxCell>
        <mxCell id="WBM-sQeUL6CdWFp2ai0U-3" value="9" style="ellipse;whiteSpace=wrap;html=1;aspect=fixed;fillColor=#dae8fc;strokeColor=#6c8ebf;" vertex="1" parent="1">
          <mxGeometry x="514" y="110" width="40" height="40" as="geometry" />
        </mxCell>
        <mxCell id="WBM-sQeUL6CdWFp2ai0U-4" style="edgeStyle=none;rounded=0;orthogonalLoop=1;jettySize=auto;html=1;exitX=0;exitY=1;exitDx=0;exitDy=0;entryX=0.5;entryY=0;entryDx=0;entryDy=0;fillColor=#dae8fc;strokeColor=#6c8ebf;" edge="1" parent="1" source="WBM-sQeUL6CdWFp2ai0U-6" target="WBM-sQeUL6CdWFp2ai0U-10">
          <mxGeometry relative="1" as="geometry" />
        </mxCell>
        <mxCell id="WBM-sQeUL6CdWFp2ai0U-5" style="edgeStyle=none;rounded=0;orthogonalLoop=1;jettySize=auto;html=1;exitX=1;exitY=1;exitDx=0;exitDy=0;entryX=0.5;entryY=0;entryDx=0;entryDy=0;fillColor=#dae8fc;strokeColor=#6c8ebf;" edge="1" parent="1" source="WBM-sQeUL6CdWFp2ai0U-6" target="WBM-sQeUL6CdWFp2ai0U-11">
          <mxGeometry relative="1" as="geometry" />
        </mxCell>
        <mxCell id="WBM-sQeUL6CdWFp2ai0U-6" value="5" style="ellipse;whiteSpace=wrap;html=1;aspect=fixed;fillColor=#dae8fc;strokeColor=#6c8ebf;" vertex="1" parent="1">
          <mxGeometry x="454" y="190" width="40" height="40" as="geometry" />
        </mxCell>
        <mxCell id="WBM-sQeUL6CdWFp2ai0U-7" style="edgeStyle=none;rounded=0;orthogonalLoop=1;jettySize=auto;html=1;exitX=0;exitY=1;exitDx=0;exitDy=0;entryX=0.5;entryY=0;entryDx=0;entryDy=0;fillColor=#dae8fc;strokeColor=#6c8ebf;" edge="1" parent="1" source="WBM-sQeUL6CdWFp2ai0U-9" target="WBM-sQeUL6CdWFp2ai0U-12">
          <mxGeometry relative="1" as="geometry" />
        </mxCell>
        <mxCell id="WBM-sQeUL6CdWFp2ai0U-8" style="rounded=0;orthogonalLoop=1;jettySize=auto;html=1;exitX=1;exitY=1;exitDx=0;exitDy=0;fillColor=#dae8fc;strokeColor=#6c8ebf;" edge="1" parent="1" source="WBM-sQeUL6CdWFp2ai0U-9" target="WBM-sQeUL6CdWFp2ai0U-13">
          <mxGeometry relative="1" as="geometry" />
        </mxCell>
        <mxCell id="WBM-sQeUL6CdWFp2ai0U-9" value="7" style="ellipse;whiteSpace=wrap;html=1;aspect=fixed;fillColor=#dae8fc;strokeColor=#6c8ebf;" vertex="1" parent="1">
          <mxGeometry x="564" y="190" width="40" height="40" as="geometry" />
        </mxCell>
        <mxCell id="WBM-sQeUL6CdWFp2ai0U-15" style="rounded=0;orthogonalLoop=1;jettySize=auto;html=1;exitX=0;exitY=1;exitDx=0;exitDy=0;entryX=0.5;entryY=0;entryDx=0;entryDy=0;fillColor=#dae8fc;strokeColor=#6c8ebf;" edge="1" parent="1" source="WBM-sQeUL6CdWFp2ai0U-10" target="WBM-sQeUL6CdWFp2ai0U-14">
          <mxGeometry relative="1" as="geometry" />
        </mxCell>
        <mxCell id="WBM-sQeUL6CdWFp2ai0U-10" value="2" style="ellipse;whiteSpace=wrap;html=1;aspect=fixed;fillColor=#dae8fc;strokeColor=#6c8ebf;" vertex="1" parent="1">
          <mxGeometry x="414" y="270" width="40" height="40" as="geometry" />
        </mxCell>
        <mxCell id="WBM-sQeUL6CdWFp2ai0U-11" value="4" style="ellipse;whiteSpace=wrap;html=1;aspect=fixed;fillColor=#dae8fc;strokeColor=#6c8ebf;" vertex="1" parent="1">
          <mxGeometry x="484" y="270" width="40" height="40" as="geometry" />
        </mxCell>
        <mxCell id="WBM-sQeUL6CdWFp2ai0U-12" value="3" style="ellipse;whiteSpace=wrap;html=1;aspect=fixed;fillColor=#dae8fc;strokeColor=#6c8ebf;" vertex="1" parent="1">
          <mxGeometry x="534" y="270" width="40" height="40" as="geometry" />
        </mxCell>
        <mxCell id="WBM-sQeUL6CdWFp2ai0U-13" value="6" style="ellipse;whiteSpace=wrap;html=1;aspect=fixed;fillColor=#dae8fc;strokeColor=#6c8ebf;" vertex="1" parent="1">
          <mxGeometry x="604" y="270" width="40" height="40" as="geometry" />
        </mxCell>
        <mxCell id="WBM-sQeUL6CdWFp2ai0U-14" value="8" style="ellipse;whiteSpace=wrap;html=1;aspect=fixed;fillColor=#ffe6cc;strokeColor=#d79b00;" vertex="1" parent="1">
          <mxGeometry x="374" y="350" width="40" height="40" as="geometry" />
        </mxCell>
        <mxCell id="WBM-sQeUL6CdWFp2ai0U-16" style="rounded=0;orthogonalLoop=1;jettySize=auto;html=1;exitX=0;exitY=1;exitDx=0;exitDy=0;entryX=0.7;entryY=0.05;entryDx=0;entryDy=0;entryPerimeter=0;fillColor=#dae8fc;strokeColor=#6c8ebf;" edge="1" parent="1" source="WBM-sQeUL6CdWFp2ai0U-18" target="WBM-sQeUL6CdWFp2ai0U-21">
          <mxGeometry relative="1" as="geometry" />
        </mxCell>
        <mxCell id="WBM-sQeUL6CdWFp2ai0U-17" style="edgeStyle=none;rounded=0;orthogonalLoop=1;jettySize=auto;html=1;exitX=1;exitY=1;exitDx=0;exitDy=0;fillColor=#dae8fc;strokeColor=#6c8ebf;" edge="1" parent="1" source="WBM-sQeUL6CdWFp2ai0U-18" target="WBM-sQeUL6CdWFp2ai0U-24">
          <mxGeometry relative="1" as="geometry" />
        </mxCell>
        <mxCell id="WBM-sQeUL6CdWFp2ai0U-18" value="9" style="ellipse;whiteSpace=wrap;html=1;aspect=fixed;fillColor=#dae8fc;strokeColor=#6c8ebf;" vertex="1" parent="1">
          <mxGeometry x="800" y="120" width="40" height="40" as="geometry" />
        </mxCell>
        <mxCell id="WBM-sQeUL6CdWFp2ai0U-19" style="edgeStyle=none;rounded=0;orthogonalLoop=1;jettySize=auto;html=1;exitX=0;exitY=1;exitDx=0;exitDy=0;entryX=0.5;entryY=0;entryDx=0;entryDy=0;fillColor=#dae8fc;strokeColor=#6c8ebf;" edge="1" parent="1" source="WBM-sQeUL6CdWFp2ai0U-21" target="WBM-sQeUL6CdWFp2ai0U-26">
          <mxGeometry relative="1" as="geometry" />
        </mxCell>
        <mxCell id="WBM-sQeUL6CdWFp2ai0U-20" style="edgeStyle=none;rounded=0;orthogonalLoop=1;jettySize=auto;html=1;exitX=1;exitY=1;exitDx=0;exitDy=0;entryX=0.5;entryY=0;entryDx=0;entryDy=0;fillColor=#dae8fc;strokeColor=#6c8ebf;" edge="1" parent="1" source="WBM-sQeUL6CdWFp2ai0U-21" target="WBM-sQeUL6CdWFp2ai0U-27">
          <mxGeometry relative="1" as="geometry" />
        </mxCell>
        <mxCell id="WBM-sQeUL6CdWFp2ai0U-21" value="5" style="ellipse;whiteSpace=wrap;html=1;aspect=fixed;fillColor=#dae8fc;strokeColor=#6c8ebf;" vertex="1" parent="1">
          <mxGeometry x="740" y="200" width="40" height="40" as="geometry" />
        </mxCell>
        <mxCell id="WBM-sQeUL6CdWFp2ai0U-22" style="edgeStyle=none;rounded=0;orthogonalLoop=1;jettySize=auto;html=1;exitX=0;exitY=1;exitDx=0;exitDy=0;entryX=0.5;entryY=0;entryDx=0;entryDy=0;fillColor=#dae8fc;strokeColor=#6c8ebf;" edge="1" parent="1" source="WBM-sQeUL6CdWFp2ai0U-24" target="WBM-sQeUL6CdWFp2ai0U-28">
          <mxGeometry relative="1" as="geometry" />
        </mxCell>
        <mxCell id="WBM-sQeUL6CdWFp2ai0U-23" style="rounded=0;orthogonalLoop=1;jettySize=auto;html=1;exitX=1;exitY=1;exitDx=0;exitDy=0;fillColor=#dae8fc;strokeColor=#6c8ebf;" edge="1" parent="1" source="WBM-sQeUL6CdWFp2ai0U-24" target="WBM-sQeUL6CdWFp2ai0U-29">
          <mxGeometry relative="1" as="geometry" />
        </mxCell>
        <mxCell id="WBM-sQeUL6CdWFp2ai0U-24" value="7" style="ellipse;whiteSpace=wrap;html=1;aspect=fixed;fillColor=#dae8fc;strokeColor=#6c8ebf;" vertex="1" parent="1">
          <mxGeometry x="850" y="200" width="40" height="40" as="geometry" />
        </mxCell>
        <mxCell id="WBM-sQeUL6CdWFp2ai0U-25" style="rounded=0;orthogonalLoop=1;jettySize=auto;html=1;exitX=0;exitY=1;exitDx=0;exitDy=0;entryX=0.5;entryY=0;entryDx=0;entryDy=0;fillColor=#dae8fc;strokeColor=#6c8ebf;" edge="1" parent="1" source="WBM-sQeUL6CdWFp2ai0U-26" target="WBM-sQeUL6CdWFp2ai0U-30">
          <mxGeometry relative="1" as="geometry" />
        </mxCell>
        <mxCell id="WBM-sQeUL6CdWFp2ai0U-26" value="8" style="ellipse;whiteSpace=wrap;html=1;aspect=fixed;fillColor=#ffe6cc;strokeColor=#d79b00;" vertex="1" parent="1">
          <mxGeometry x="700" y="280" width="40" height="40" as="geometry" />
        </mxCell>
        <mxCell id="WBM-sQeUL6CdWFp2ai0U-27" value="4" style="ellipse;whiteSpace=wrap;html=1;aspect=fixed;fillColor=#dae8fc;strokeColor=#6c8ebf;" vertex="1" parent="1">
          <mxGeometry x="770" y="280" width="40" height="40" as="geometry" />
        </mxCell>
        <mxCell id="WBM-sQeUL6CdWFp2ai0U-28" value="3" style="ellipse;whiteSpace=wrap;html=1;aspect=fixed;fillColor=#dae8fc;strokeColor=#6c8ebf;" vertex="1" parent="1">
          <mxGeometry x="820" y="280" width="40" height="40" as="geometry" />
        </mxCell>
        <mxCell id="WBM-sQeUL6CdWFp2ai0U-29" value="6" style="ellipse;whiteSpace=wrap;html=1;aspect=fixed;fillColor=#dae8fc;strokeColor=#6c8ebf;" vertex="1" parent="1">
          <mxGeometry x="890" y="280" width="40" height="40" as="geometry" />
        </mxCell>
        <mxCell id="WBM-sQeUL6CdWFp2ai0U-30" value="2" style="ellipse;whiteSpace=wrap;html=1;aspect=fixed;fillColor=#dae8fc;strokeColor=#6c8ebf;" vertex="1" parent="1">
          <mxGeometry x="660" y="360" width="40" height="40" as="geometry" />
        </mxCell>
        <mxCell id="WBM-sQeUL6CdWFp2ai0U-31" style="rounded=0;orthogonalLoop=1;jettySize=auto;html=1;exitX=0;exitY=1;exitDx=0;exitDy=0;entryX=0.7;entryY=0.05;entryDx=0;entryDy=0;entryPerimeter=0;fillColor=#dae8fc;strokeColor=#6c8ebf;" edge="1" parent="1" source="WBM-sQeUL6CdWFp2ai0U-33" target="WBM-sQeUL6CdWFp2ai0U-36">
          <mxGeometry relative="1" as="geometry" />
        </mxCell>
        <mxCell id="WBM-sQeUL6CdWFp2ai0U-32" style="edgeStyle=none;rounded=0;orthogonalLoop=1;jettySize=auto;html=1;exitX=1;exitY=1;exitDx=0;exitDy=0;fillColor=#dae8fc;strokeColor=#6c8ebf;" edge="1" parent="1" source="WBM-sQeUL6CdWFp2ai0U-33" target="WBM-sQeUL6CdWFp2ai0U-39">
          <mxGeometry relative="1" as="geometry" />
        </mxCell>
        <mxCell id="WBM-sQeUL6CdWFp2ai0U-33" value="9" style="ellipse;whiteSpace=wrap;html=1;aspect=fixed;fillColor=#dae8fc;strokeColor=#6c8ebf;" vertex="1" parent="1">
          <mxGeometry x="1090" y="130" width="40" height="40" as="geometry" />
        </mxCell>
        <mxCell id="WBM-sQeUL6CdWFp2ai0U-34" style="edgeStyle=none;rounded=0;orthogonalLoop=1;jettySize=auto;html=1;exitX=0;exitY=1;exitDx=0;exitDy=0;entryX=0.5;entryY=0;entryDx=0;entryDy=0;fillColor=#dae8fc;strokeColor=#6c8ebf;" edge="1" parent="1" source="WBM-sQeUL6CdWFp2ai0U-36" target="WBM-sQeUL6CdWFp2ai0U-41">
          <mxGeometry relative="1" as="geometry" />
        </mxCell>
        <mxCell id="WBM-sQeUL6CdWFp2ai0U-35" style="edgeStyle=none;rounded=0;orthogonalLoop=1;jettySize=auto;html=1;exitX=1;exitY=1;exitDx=0;exitDy=0;entryX=0.5;entryY=0;entryDx=0;entryDy=0;fillColor=#dae8fc;strokeColor=#6c8ebf;" edge="1" parent="1" source="WBM-sQeUL6CdWFp2ai0U-36" target="WBM-sQeUL6CdWFp2ai0U-42">
          <mxGeometry relative="1" as="geometry" />
        </mxCell>
        <mxCell id="WBM-sQeUL6CdWFp2ai0U-36" value="8" style="ellipse;whiteSpace=wrap;html=1;aspect=fixed;fillColor=#ffe6cc;strokeColor=#d79b00;" vertex="1" parent="1">
          <mxGeometry x="1030" y="210" width="40" height="40" as="geometry" />
        </mxCell>
        <mxCell id="WBM-sQeUL6CdWFp2ai0U-37" style="edgeStyle=none;rounded=0;orthogonalLoop=1;jettySize=auto;html=1;exitX=0;exitY=1;exitDx=0;exitDy=0;entryX=0.5;entryY=0;entryDx=0;entryDy=0;fillColor=#dae8fc;strokeColor=#6c8ebf;" edge="1" parent="1" source="WBM-sQeUL6CdWFp2ai0U-39" target="WBM-sQeUL6CdWFp2ai0U-43">
          <mxGeometry relative="1" as="geometry" />
        </mxCell>
        <mxCell id="WBM-sQeUL6CdWFp2ai0U-38" style="rounded=0;orthogonalLoop=1;jettySize=auto;html=1;exitX=1;exitY=1;exitDx=0;exitDy=0;fillColor=#dae8fc;strokeColor=#6c8ebf;" edge="1" parent="1" source="WBM-sQeUL6CdWFp2ai0U-39" target="WBM-sQeUL6CdWFp2ai0U-44">
          <mxGeometry relative="1" as="geometry" />
        </mxCell>
        <mxCell id="WBM-sQeUL6CdWFp2ai0U-39" value="7" style="ellipse;whiteSpace=wrap;html=1;aspect=fixed;fillColor=#dae8fc;strokeColor=#6c8ebf;" vertex="1" parent="1">
          <mxGeometry x="1140" y="210" width="40" height="40" as="geometry" />
        </mxCell>
        <mxCell id="WBM-sQeUL6CdWFp2ai0U-40" style="rounded=0;orthogonalLoop=1;jettySize=auto;html=1;exitX=0;exitY=1;exitDx=0;exitDy=0;entryX=0.5;entryY=0;entryDx=0;entryDy=0;fillColor=#dae8fc;strokeColor=#6c8ebf;" edge="1" parent="1" source="WBM-sQeUL6CdWFp2ai0U-41" target="WBM-sQeUL6CdWFp2ai0U-45">
          <mxGeometry relative="1" as="geometry" />
        </mxCell>
        <mxCell id="WBM-sQeUL6CdWFp2ai0U-41" value="5" style="ellipse;whiteSpace=wrap;html=1;aspect=fixed;fillColor=#dae8fc;strokeColor=#6c8ebf;" vertex="1" parent="1">
          <mxGeometry x="990" y="290" width="40" height="40" as="geometry" />
        </mxCell>
        <mxCell id="WBM-sQeUL6CdWFp2ai0U-42" value="4" style="ellipse;whiteSpace=wrap;html=1;aspect=fixed;fillColor=#dae8fc;strokeColor=#6c8ebf;" vertex="1" parent="1">
          <mxGeometry x="1060" y="290" width="40" height="40" as="geometry" />
        </mxCell>
        <mxCell id="WBM-sQeUL6CdWFp2ai0U-43" value="3" style="ellipse;whiteSpace=wrap;html=1;aspect=fixed;fillColor=#dae8fc;strokeColor=#6c8ebf;" vertex="1" parent="1">
          <mxGeometry x="1110" y="290" width="40" height="40" as="geometry" />
        </mxCell>
        <mxCell id="WBM-sQeUL6CdWFp2ai0U-44" value="6" style="ellipse;whiteSpace=wrap;html=1;aspect=fixed;fillColor=#dae8fc;strokeColor=#6c8ebf;" vertex="1" parent="1">
          <mxGeometry x="1180" y="290" width="40" height="40" as="geometry" />
        </mxCell>
        <mxCell id="WBM-sQeUL6CdWFp2ai0U-45" value="2" style="ellipse;whiteSpace=wrap;html=1;aspect=fixed;fillColor=#dae8fc;strokeColor=#6c8ebf;" vertex="1" parent="1">
          <mxGeometry x="950" y="370" width="40" height="40" as="geometry" />
        </mxCell>
      </root>
    </mxGraphModel>
  </diagram>
</mxfile>
